<svg width="38" height="42" viewBox="0 0 38 42" fill="none" xmlns="http://www.w3.org/2000/svg">
<path d="M28.1544 30.5059V28.4589H30.4138V26.202H32.7474V23.871H34.9659V21.3429H37.082L36.9669 9.52126V9.16559H34.8303V6.86268H32.7525V4.55977H30.4496V2.32338H28.1467V0H0V42H16.7089V41.6213C16.7089 41.4396 16.7089 41.2579 16.7089 41.0737V38.9167H2.94517V37.4018H5.50396V35.0989H7.55099V32.8421H9.80018V30.4982H12.1031V28.2465H14.2909V26.1995H16.0974V23.6714H18.8634V26.005H20.5855V28.2056H22.8884V30.5085L28.1544 30.5059ZM18.4796 13.9582H7.33094V11.9931H9.63385V9.67223H11.9163V7.50749V7.38979H16.192V9.65432H18.4949L18.4796 13.9582ZM29.9123 5.4579V7.42049H31.8672V7.75314H32.2126V9.34214H27.9778V5.11758H29.5745V5.46814L29.9123 5.4579Z" fill="black"/>
<path d="M34.3235 29.8125C34.3235 30.5801 34.3235 31.3247 34.3235 32.0796H32.0359V34.3825H29.6537V36.7187H27.3508V38.9627H25.1579V42H37.3096V29.8125H34.3235Z" fill="black"/>
</svg>
