<svg width="87" height="96" viewBox="0 0 87 96" fill="none" xmlns="http://www.w3.org/2000/svg">
<path d="M64.694 69.0975V64.5396H69.7191V59.5145H74.9493V54.3641H79.8776V48.735H84.5893L84.3329 22.4073V21.6154H79.5756V16.4877H74.9493V11.3601H69.8216V6.39195H64.694V1.17883H2.02258V94.6903H39.2266V93.8527C39.2266 93.4425 39.2266 93.038 39.2266 92.6335V87.8306H8.56319V84.4577H14.2606V79.3301H18.8185V74.305H23.8322V69.0861H28.9599V64.0724H33.8255V59.5145H37.8478V53.8855H44.0124V59.0872H47.8468V63.987H52.9744V69.1146L64.694 69.0975ZM43.1464 32.2525H18.3285V27.8825H23.4562V22.7093H28.544V17.9007V17.6443H38.0302V22.6865H43.1578L43.1464 32.2525ZM68.6081 13.3428V17.707H72.9609V18.4476H73.73V21.9857H64.3066V12.5452H67.856V13.3428H68.6081Z" fill="black" stroke="black" stroke-width="2.2" stroke-miterlimit="10"/>
<path d="M78.4303 67.5536C78.4303 69.2628 78.4303 70.9207 78.4303 72.6072H73.3369V77.7348H68.0326V82.9366H62.9049V87.9332H58.028V94.7017H85.0906V67.5536H78.4303Z" fill="black" stroke="black" stroke-width="2.2" stroke-miterlimit="10"/>
</svg>
